<svg width="120" height="24" viewBox="0 0 120 24" fill="none" xmlns="http://www.w3.org/2000/svg">
<path d="M0 22.9466V12.6792C0 8.8566 2.37032 5.91855 6.28926 5.91855C8.37514 5.95014 10.0818 6.92949 10.9983 8.35113C11.9464 6.8979 13.6531 5.91855 15.7389 5.91855C19.6579 5.95014 22.0282 8.8566 21.9966 12.6792V22.9466H18.8362V12.6792C18.8362 10.7205 17.6668 9.07774 15.7389 9.07774C13.7795 9.07774 12.5785 10.7521 12.5785 12.6792V22.9466H9.41808V12.6792C9.41808 10.7205 8.24873 9.07774 6.28926 9.07774C4.3614 9.07774 3.16043 10.7521 3.16043 12.6792V22.9466H0Z" fill="black"/>
<path d="M28.3345 4.30736C27.3864 4.30736 26.5647 3.42279 26.5647 2.50662C26.5647 1.52727 27.3864 0.705879 28.3345 0.705879C29.3458 0.705879 30.1676 1.52727 30.1676 2.50662C30.1676 3.42279 29.3458 4.30736 28.3345 4.30736ZM26.8491 22.9466V6.29765H29.8199V22.9466H26.8491Z" fill="black"/>
<path d="M34.5326 22.9466V14.2588C34.5326 9.2673 37.9143 6.07651 42.5917 6.07651C47.2692 6.07651 50.6192 9.2673 50.6192 14.2588V22.9466H47.4588V14.2588C47.4588 11.0364 45.5625 9.2357 42.5917 9.2357C39.6209 9.2357 37.6931 11.068 37.6931 14.2588V22.9466H34.5326Z" fill="black"/>
<path d="M56.8524 4.30736C55.9043 4.30736 55.0826 3.42279 55.0826 2.50662C55.0826 1.52727 55.9043 0.705879 56.8524 0.705879C57.8638 0.705879 58.6855 1.52727 58.6855 2.50662C58.6855 3.42279 57.8638 4.30736 56.8524 4.30736ZM55.367 22.9466V6.29765H58.3379V22.9466H55.367Z" fill="black"/>
<path d="M71.4867 23.073C68.2315 23.073 63.2696 22.2516 63.2696 16.565V9.45685H61.7526V6.29765H63.2696V2.82254H66.43V6.29765H70.4754V9.45685H66.43V15.8384C66.43 19.6295 69.2428 19.9138 71.4867 19.9138V23.073Z" fill="black"/>
<path d="M81.7979 23.1677C77.1204 23.1677 73.7388 19.977 73.7388 14.9854V6.29765H76.8992V14.9854C76.8992 18.113 78.8271 20.0086 81.7979 20.0086C84.7371 20.0086 86.6649 18.1762 86.6649 14.9854V6.29765H89.8254V14.9854C89.8254 19.977 86.4437 23.1677 81.7979 23.1677Z" fill="black"/>
<path d="M93.8613 22.9466V6.29765H96.8954V8.31954C97.7487 6.73994 100.119 6.1081 102.363 6.29765V9.48844C99.6449 9.07774 97.0218 10.5942 97.0218 13.2163V22.9466H93.8613Z" fill="black"/>
<path d="M112.234 23.2941C107.146 23.2941 103.795 18.8081 103.795 14.48C103.795 9.83595 106.893 5.729 111.855 5.729C117.259 5.76059 121.083 9.80436 119.724 15.9016H107.24C107.43 18.271 109.705 20.4193 112.581 20.4508C113.909 20.4508 116.5 19.7874 117.164 18.6817L119.598 20.5456C117.954 22.4727 115.205 23.2941 112.234 23.2941ZM107.24 13.1531H116.627C116.943 11.384 115.71 8.54068 111.949 8.54068C108.947 8.54068 107.24 11.0049 107.24 13.1531Z" fill="black"/>
</svg>
