<svg height="16" width="16" xmlns="http://www.w3.org/2000/svg"><path d="M7.992 0C3.576 0 0 3.584 0 8s3.576 8 7.992 8C12.416 16 16 12.416 16 8s-3.584-8-8.008-8zM8 14.4A6.398 6.398 0 011.6 8c0-3.536 2.864-6.4 6.4-6.4 3.536 0 6.4 2.864 6.4 6.4 0 3.536-2.864 6.4-6.4 6.4zm2.8-7.2c.664 0 1.2-.536 1.2-1.2 0-.664-.536-1.2-1.2-1.2S9.6 5.336 9.6 6c0 .664.536 1.2 1.2 1.2zm-5.6 0c.664 0 1.2-.536 1.2-1.2 0-.664-.536-1.2-1.2-1.2S4 5.336 4 6c0 .664.536 1.2 1.2 1.2zM8 12.4a4.375 4.375 0 003.456-1.692c.378-.485-.033-1.108-.648-1.108H5.192c-.615 0-1.026.623-.648 1.108A4.375 4.375 0 008 12.4z"/></svg>